<?xml version="1.0" encoding="UTF-8" standalone="no"?>
<svg width="234px" height="706px" viewBox="0 0 234 706" version="1.1" xmlns="http://www.w3.org/2000/svg" xmlns:xlink="http://www.w3.org/1999/xlink" xmlns:sketch="http://www.bohemiancoding.com/sketch/ns">
    <!-- Generator: Sketch 3.3.3 (12072) - http://www.bohemiancoding.com/sketch -->
    <title>bond_profiling</title>
    <desc>Created with Sketch.</desc>
    <defs></defs>
    <g id="Welcome" stroke="none" stroke-width="1" fill="none" fill-rule="evenodd" sketch:type="MSPage">
        <g id="Desktop" sketch:type="MSArtboardGroup" transform="translate(-256.000000, -1273.000000)">
            <g id="Hero-Section" sketch:type="MSLayerGroup">
                <g id="Intro-Section" transform="translate(183.000000, 922.000000)" sketch:type="MSShapeGroup">
                    <g id="Oval-35-+-bond_profiling" transform="translate(72.000000, 351.000000)">
                        <g id="bond_profiling">
                            <g id="Layer_10" transform="translate(1.108491, 320.758242)" fill="#FFFFFF">
                                <path d="M0,19.0901099 C0,19.0901099 0.554245283,25.4164835 1.33018868,24.8615385 C2.10613208,24.3065934 29.2641509,17.9802198 28.8207547,17.3142857 C28.4882075,16.5373626 27.9339623,10.6549451 27.379717,10.8769231 C26.8254717,11.0989011 8.20283019,11.4318681 7.09433962,12.2087912 C5.98584906,12.9857143 0,19.0901099 0,19.0901099 L0,19.0901099 Z" id="Shape"></path>
                                <path d="M233.337264,10.210989 C233.337264,10.210989 226.686321,0.776923077 225.910377,0.443956044 C225.134434,0.110989011 214.049528,0.443956044 214.049528,0.443956044 C214.049528,0.443956044 208.728774,3.21868132 207.95283,3.55164835 C207.176887,3.88461538 202.632075,7.21428571 202.632075,7.21428571 L202.632075,10.8769231 L233.337264,15.0945055 L233.337264,10.210989 L233.337264,10.210989 Z" id="Shape"></path>
                            </g>
                            <g id="Layer_6" transform="translate(42.122642, 264.153846)" fill="#000000">
                                <path d="M0.110849057,101.887912 L6.98349057,146.505495 C6.98349057,146.505495 14.1886792,200.335165 14.1886792,202 L14.1886792,229.747253 L18.6226415,254.164835 L18.6226415,263.043956 C18.6226415,263.043956 23.0566038,289.126374 23.0566038,290.791209 L23.0566038,319.093407 C23.0566038,319.093407 27.490566,345.730769 28.0448113,347.395604 C28.5990566,349.06044 41.9009434,398.450549 41.9009434,398.450549 L71.3867925,395.675824 C71.3867925,395.675824 76.8183962,387.906593 75.9316038,386.241758 C75.0448113,384.576923 77.2617925,352.39011 75.9316038,350.17033 C74.6014151,347.950549 71.3867925,320.203297 71.3867925,320.203297 C71.3867925,320.203297 72.6061321,270.258242 71.3867925,268.593407 C70.1674528,266.928571 68.504717,241.956044 68.504717,241.956044 L68.504717,212.543956 L67.3962264,203.664835 L67.9504717,193.675824 L68.504717,151.5 L65.7334906,144.285714 C65.7334906,144.285714 70.7216981,115.428571 71.8301887,117.093407 C72.9386792,118.758242 86.240566,138.736264 86.240566,138.736264 L89.0117925,153.164835 C89.0117925,153.164835 95.6627358,169.813187 97.3254717,170.368132 C98.9882075,170.923077 102.313679,187.016484 102.313679,187.016484 L105.084906,203.10989 L105.084906,225.307692 L108.632075,231.967033 L103.976415,242.510989 L104.53066,276.695604 C104.53066,276.695604 103.200472,280.58022 103.200472,281.357143 C103.200472,282.134066 103.42217,286.906593 103.42217,286.906593 C103.42217,286.906593 98.4339623,315.763736 99.3207547,315.985714 C100.207547,316.207692 129.804245,338.738462 129.471698,337.961538 C129.139151,337.184615 132.242925,312.434066 132.242925,311.546154 C132.242925,310.658242 151.308962,252.167033 151.308962,252.167033 L152.971698,242.178022 C152.971698,242.178022 151.863208,142.287912 151.641509,140.068132 C151.419811,137.848352 147.429245,95.6725275 147.429245,95.6725275 L128.584906,56.7153846 C128.584906,56.7153846 85.9080189,0.776923077 82.0283019,0.998901099 C78.1485849,1.22087912 55.2028302,4.10659341 54.3160377,4.55054945 C53.4292453,4.99450549 16.0731132,82.4648352 16.0731132,82.4648352 L0.110849057,101.887912 L0.110849057,101.887912 Z" id="Shape"></path>
                            </g>
                            <g id="Layer_4" transform="translate(0.000000, 86.571429)" fill="#000000">
                                <path d="M87.3490566,4.77252747 L78.7028302,17.9802198 L31.0377358,39.4010989 L26.9363208,40.178022 L24.7193396,47.1703297 C24.7193396,47.1703297 22.8349057,57.1593407 22.7240566,57.7142857 C22.6132075,58.2692308 19.1768868,69.0351648 19.1768868,69.5901099 C19.1768868,70.1450549 16.9599057,87.5703297 16.9599057,87.5703297 C16.9599057,87.5703297 13.8561321,97.3373626 13.8561321,98.3362637 C13.8561321,99.2241758 12.5259434,107.992308 12.5259434,107.992308 L9.97641509,119.202198 C9.97641509,119.202198 6.98349057,129.746154 6.98349057,130.523077 C6.98349057,131.3 5.875,137.182418 5.875,137.182418 L4.54481132,143.286813 L4.54481132,147.948352 L0.997641509,154.607692 L0.997641509,188.237363 L0.997641509,238.182418 L1.88443396,243.176923 L1.10849057,248.282418 L1.10849057,253.276923 L7.53773585,249.614286 C7.53773585,249.614286 12.7476415,247.616484 13.4127358,247.616484 C14.1886792,247.616484 20.6179245,247.838462 21.1721698,247.838462 C21.7264151,247.838462 30.8160377,249.725275 30.8160377,249.725275 L30.5943396,237.516484 C30.5943396,237.516484 33.5872642,214.763736 33.365566,214.208791 C33.1438679,213.653846 40.0165094,179.802198 40.0165094,179.802198 C40.0165094,179.802198 41.9009434,174.807692 42.0117925,174.252747 C42.1226415,173.697802 41.7900943,164.596703 41.7900943,164.596703 L47.5542453,140.401099 C47.5542453,140.401099 50.5471698,113.763736 51.1014151,114.318681 C51.6556604,114.873626 56.5330189,139.513187 56.5330189,139.513187 L56.754717,155.606593 L54.3160377,171.367033 C54.3160377,171.367033 49.3278302,180.246154 49.6603774,181.356044 C49.9929245,182.465934 49.8820755,183.797802 49.8820755,183.797802 L46.0023585,194.341758 L44.1179245,207.327473 L41.7900943,227.083516 C41.7900943,227.083516 39.5731132,253.720879 39.7948113,254.608791 C40.0165094,255.496703 42.0117925,279.581319 42.0117925,279.581319 C42.0117925,279.581319 61.4103774,281.579121 62.8514151,280.913187 C64.2924528,280.247253 75.5990566,280.358242 76.1533019,279.581319 C76.7075472,278.804396 90.5636792,266.595604 90.7853774,265.263736 C91.0070755,264.042857 113.398585,201.556044 113.398585,201.556044 L115.726415,185.795604 C115.726415,185.795604 125.70283,218.537363 126.257075,219.647253 C126.811321,220.757143 142.884434,254.941758 143.660377,255.163736 C144.436321,255.385714 158.625,269.37033 159.400943,269.37033 C160.176887,269.37033 189.330189,273.587912 189.330189,273.587912 C189.330189,273.587912 190.660377,231.634066 190.992925,230.524176 C191.325472,229.414286 188.997642,213.653846 188.997642,213.653846 L180.129717,174.585714 L174.808962,161.267033 C174.808962,161.267033 174.587264,134.407692 175.03066,133.51978 C175.474057,132.631868 182.790094,110.434066 182.790094,110.434066 L186.669811,118.203297 C186.669811,118.203297 186.448113,125.528571 187.002358,125.750549 C187.556604,125.972527 189.995283,130.523077 189.995283,130.523077 L190.882075,144.618681 L190.882075,151.5 L197.089623,163.708791 L195.981132,170.59011 L198.53066,180.912088 L199.417453,193.120879 C199.417453,193.120879 201.856132,203.664835 201.966981,204.21978 C202.188679,204.774725 201.966981,215.651648 201.966981,215.651648 L203.29717,222.089011 L203.29717,243.176923 L211.056604,240.18022 L223.804245,239.847253 L234.002358,244.61978 L234.002358,217.205495 L234.778302,203.886813 L234.778302,193.120879 C234.778302,193.120879 230.011792,155.051648 230.011792,154.274725 C230.011792,153.497802 231.120283,142.953846 231.120283,142.953846 L229.125,133.186813 L227.683962,122.420879 L219.70283,101.887912 L219.481132,91.121978 L217.485849,86.3494505 L217.153302,79.6901099 C217.153302,79.6901099 212.386792,65.5945055 211.832547,65.0395604 C211.278302,64.4846154 210.945755,58.7131868 210.945755,58.7131868 L200.193396,32.0758242 L198.863208,26.3043956 L193.320755,25.9714286 L147.872642,12.6527473 L135.900943,0.332967033 L87.3490566,4.77252747 L87.3490566,4.77252747 Z" id="Shape"></path>
                            </g>
                            <g id="Layer_2" transform="translate(75.377358, 0.000000)">
                                <path d="M20.1745283,83.9076923 L16.0731132,79.5791209 L7.75943396,70.810989 L0.110849057,39.7340659 L0.886792453,25.3054945 L9.75471698,10.321978 L20.1745283,0 L40.7924528,0 L53.4292453,10.321978 L63.2948113,28.9681319 L59.8584906,66.1494505 L53.5400943,77.1373626 L40.7924528,83.9076923 L20.1745283,83.9076923 Z" id="Shape" fill="#000000"></path>
                                <path d="M40.0165094,232.854945 L17.0707547,156.161538 L11.6391509,114.318681 L11.9716981,91.343956 L35.0283019,104.773626 L60.745283,86.9043956 L62.9622642,105.994505 L60.5235849,143.175824 L40.0165094,232.854945 Z" id="Shape" stroke="#1D1D1B" stroke-width="0.5" fill="#FFFFFF"></path>
                            </g>
                            <g id="Layer_3" transform="translate(86.462264, 66.593407)" fill="#000000">
                                <path d="M49.6603774,20.310989 L23.6108491,40.621978 L0.997641509,24.8615385 L3.65801887,6.43736264 L44.4504717,0.887912088 L49.6603774,20.310989 Z" id="Shape"></path>
                            </g>
                            <g id="Layer_7" transform="translate(3.325472, 99.890110)">
                                <g id="Group" transform="translate(87.570755, 0.000000)" fill="#000000">
                                    <path d="M17.625,9.1010989 C17.625,9.1010989 4.43396226,-0.110989011 2.88207547,0.665934066 C1.33018868,1.44285714 2.04836148e-14,10.1 0.33254717,14.0956044 C0.775943396,18.3131868 1.55188679,21.9758242 3.10377358,22.0868132 C4.54481132,22.1978022 17.7358491,16.2043956 17.7358491,16.2043956 L17.625,9.1010989 L17.625,9.1010989 Z" id="Shape"></path>
                                    <path d="M21.615566,9.1010989 C21.615566,9.1010989 34.8066038,-0.110989011 36.3584906,0.665934066 C37.9103774,1.44285714 39.240566,10.1 38.9080189,14.0956044 C38.4646226,18.3131868 37.6886792,21.9758242 36.1367925,22.0868132 C34.6957547,22.1978022 21.504717,16.2043956 21.504717,16.2043956 L21.615566,9.1010989 L21.615566,9.1010989 Z" id="Shape"></path>
                                    <path d="M20.3962264,16.4263736 L19.0660377,16.4263736 C17.2924528,16.4263736 15.9622642,14.9835165 15.9622642,13.3186813 L15.9622642,11.8758242 C15.9622642,10.1 17.4033019,8.76813187 19.0660377,8.76813187 L20.3962264,8.76813187 C22.1698113,8.76813187 23.5,10.210989 23.5,11.8758242 L23.5,13.3186813 C23.5,15.0945055 22.1698113,16.4263736 20.3962264,16.4263736 L20.3962264,16.4263736 Z" id="Shape"></path>
                                </g>
                                <path d="M172.259434,56.4934066 L153.96934,59.8230769 L155.07783,53.7186813 L172.259434,52.6087912 L172.259434,56.4934066 Z" id="Shape" fill="#FFFFFF"></path>
                                <path d="M2.5495283,240.069231 L0.886792453,261.157143 L4.21226415,278.693407 L17.2924528,292.012088 L22.2806604,292.012088 L28.9316038,291.124176 L23.0566038,278.915385 L26.6037736,258.382418 L28.9316038,270.036264 L34.1415094,279.248352 L36.6910377,278.138462 L36.6910377,268.815385 L35.0283019,260.38022 L35.0283019,250.835165 L22.5023585,235.296703 L2.5495283,240.069231 Z" id="Shape" fill="#000000"></path>
                                <path d="M202.632075,231.634066 L193.764151,243.953846 L193.764151,266.373626 L191.879717,272.034066 L193.764151,273.698901 L200.415094,269.259341 L202.632075,257.050549 L204.073113,270.591209 L197.976415,279.803297 L195.759434,287.017582 L197.976415,288.904396 L205.403302,286.462637 L207.066038,286.12967 L222.917453,275.363736 L228.127358,256.717582 L222.917453,230.413187 L202.632075,231.634066 Z" id="Shape" fill="#000000"></path>
                            </g>
                            <g id="Layer_8" transform="translate(73.160377, 551.615385)" fill="#000000">
                                <path d="M12.3042453,107.215385 L12.3042453,118.869231 L3.99056604,131.3 L2.32783019,141.510989 L0.66509434,146.172527 L9.53301887,151.721978 C9.53301887,151.721978 17.2924528,153.941758 18.1792453,153.941758 C19.0660377,153.941758 25.7169811,154.82967 26.4929245,153.941758 C27.2688679,153.053846 40.4599057,149.28022 40.4599057,149.28022 L40.4599057,145.062637 L43.120283,137.848352 L40.9033019,123.197802 L40.9033019,117.87033 L39.240566,102.331868 L17.2924528,97.6703297 L12.3042453,107.215385 L12.3042453,107.215385 Z" id="Shape"></path>
                                <path d="M76.8183962,0.332967033 C75.1556604,0.554945055 66.620283,2.55274725 65.5117925,3.10769231 C64.4033019,3.66263736 58.6391509,8.65714286 58.6391509,8.65714286 L60.3018868,31.0769231 L62.740566,31.0769231 C62.740566,31.0769231 66.2877358,38.6241758 65.5117925,39.7340659 C64.7358491,40.843956 63.0731132,51.3879121 62.740566,52.4978022 C62.4080189,53.6076923 57.1981132,63.3747253 57.1981132,63.3747253 L57.1981132,76.4714286 L65.1792453,108.436264 L70.1674528,111.210989 L76.8183962,107.881319 L88.4575472,74.5846154 L90.120283,37.4032967 L76.8183962,0.332967033 L76.8183962,0.332967033 Z" id="Shape"></path>
                            </g>
                            <g id="Layer_9" transform="translate(69.834906, 39.956044)" fill="#000000">
                                <path d="M2.77122642,19.3120879 L1.66273585,13.8736264 L0.66509434,9.54505495 L4.65566038,5.77142857 L14.2995283,10.6549451 L16.6273585,30.521978 L7.75943396,27.0813187 L2.77122642,19.3120879 Z" id="Shape"></path>
                                <path d="M73.2712264,15.9824176 L75.5990566,11.3208791 L75.9316038,5.77142857 L71.8301887,0.887912088 L65.0683962,2.88571429 L61.6320755,26.0824176 L66.620283,24.5285714 L68.0613208,25.1945055 L70.9433962,23.8626374 L73.2712264,15.9824176 Z" id="Shape"></path>
                            </g>
                        </g>
                    </g>
                </g>
            </g>
        </g>
    </g>
</svg>